<svg aria-hidden="true" style="width:0;height:0;position:absolute;overflow:hidden" xmlns="http://www.w3.org/2000/svg"><defs><symbol id="icon-basket" viewBox="0 0 26 32"><path fill="#fff" style="fill:var(--color1,#fff)" d="m26.215 30.75-.001-.005c.006.04.009.082.009.124v.004c0 .549-.458.994-1.022.994H1.058c-.284 0-.554-.114-.747-.315s-.293-.47-.274-.745L1.643 6.979a1.01 1.01 0 0 1 1.02-.929h4.475v-.64c0-2.742 2.293-4.972 5.112-4.972h1.758c2.818 0 5.112 2.23 5.112 4.972v.64h4.473c.539 0 .985.406 1.02.93l1.603 23.77zM12.25 2.426c-1.692 0-3.068 1.339-3.068 2.984v.64h7.893v-.64c0-1.645-1.376-2.984-3.068-2.984h-1.758z"/></symbol><symbol id="icon-heart" viewBox="0 0 36 32"><path fill="#fff" style="fill:var(--color1,#fff)" d="M16.24 31.444c.359.322.837.519 1.36.519s1.001-.197 1.362-.521l-.002.002c.9-.81 2.205-1.96 3.518-3.101l.492-.419h.001c3.546-3.085 6.607-5.748 8.738-8.372 2.382-2.934 3.491-5.715 3.491-8.754 0-2.952-.992-5.676-2.792-7.67A9.363 9.363 0 0 0 25.416 0h-.052.003c-2.032 0-3.893.656-5.53 1.949a11.564 11.564 0 0 0-2.213 2.347l-.024.036a11.536 11.536 0 0 0-2.214-2.366l-.022-.017C13.726.656 11.865 0 9.834 0h-.05A9.357 9.357 0 0 0 2.8 3.119l-.008.009C.992 5.122 0 7.846 0 10.798c0 3.039 1.11 5.82 3.491 8.754 2.13 2.624 5.193 5.288 8.74 8.373l.006.005c1.21 1.052 2.58 2.245 4.002 3.514z"/></symbol><symbol id="icon-left-arrow" viewBox="0 0 44 32"><path fill="#fff" style="fill:var(--color1,#fff);stroke:var(--color1,#fff)" stroke="#fff" stroke-width="1.032" d="M29.533 1.355c-.271-.277-.649-.448-1.066-.448s-.795.171-1.066.448c-.268.272-.433.646-.433 1.058s.165.786.433 1.058l10.816 10.834H2.52c-.821 0-1.486.665-1.486 1.486v.011-.001c0 .834.661 1.517 1.494 1.517h35.69L27.402 28.134c-.576.599-.576 1.561 0 2.137.597.599 1.559.599 2.134 0l13.376-13.399c.276-.268.447-.643.447-1.058s-.171-.79-.447-1.058L29.536 1.354z"/></symbol><symbol id="icon-menu" viewBox="0 0 32 32"><path fill="#fff" style="fill:var(--color1,#fff)" d="M12.445 12.444h7.112v7.112h-7.112zM0 0h7.112v7.112H0zm12.445 24.888h7.112V32h-7.112zM0 12.444h7.112v7.112H0zm0 12.444h7.112V32H0zM24.889 0h7.112v7.112h-7.112zM12.445 0h7.112v7.112h-7.112zm12.444 12.444h7.112v7.112h-7.112zm0 12.444h7.112V32h-7.112z"/></symbol><symbol id="icon-right-arrow" viewBox="0 0 44 32"><path fill="#fff" style="fill:var(--color1,#fff);stroke:var(--color1,#fff)" opacity=".6" stroke="#fff" stroke-width="1.032" d="M14.625 1.355c.274-.277.655-.448 1.075-.448s.801.171 1.075.448a1.502 1.502 0 0 1 0 2.116L5.873 14.304H41.86c.825 0 1.494.669 1.494 1.494v.004a1.51 1.51 0 0 1-1.505 1.517H5.873l10.901 10.816c.581.599.581 1.561 0 2.137-.601.599-1.569.599-2.15 0l-13.482-13.4c-.278-.267-.451-.642-.451-1.058s.173-.791.451-1.058L14.625 1.355z"/></symbol><symbol id="icon-search" viewBox="0 0 32 32"><path fill="#fff" style="fill:var(--color1,#fff)" d="m23.498 21.717 7.288 7.288a1.252 1.252 0 0 1 0 1.782 1.26 1.26 0 0 1-1.788 0l-7.288-7.282a12.635 12.635 0 0 1-8.067 2.888h-.027.001C6.559 26.394.841 20.672.841 13.619.841 6.564 6.558.842 13.617.842c7.053 0 12.776 5.723 12.776 12.776a12.73 12.73 0 0 1-2.896 8.099zm-20.119-8.1c0 5.642 4.591 10.233 10.24 10.233 5.642 0 10.239-4.59 10.239-10.233S19.26 3.378 13.618 3.378c-5.648 0-10.239 4.597-10.239 10.24z"/><path fill="#fff" style="fill:var(--color1,#fff)" d="m30.787 29.005-.298.298.002.002.296-.3zm-7.289-7.288-.325-.268-.242.295.269.27.298-.297zm7.289 9.07-.296-.3-.002.003.297.297zm-1.788 0zm-7.289-7.282.298-.298-.269-.269-.295.242.266.326zm9.375 5.202-7.288-7.288-.595.595 7.288 7.288.595-.595zm-.002 2.379c.307-.304.497-.725.497-1.191s-.19-.887-.497-1.191l-.592.6a.83.83 0 0 1 0 1.182l.592.6zm-2.382-.001c.305.305.726.494 1.192.494s.887-.189 1.192-.494l-.595-.595a.838.838 0 0 1-1.194 0l-.595.595zm-7.288-7.282 7.288 7.282.595-.595-7.288-7.283-.595.595zm-7.795 3.012c3.176 0 6.085-1.118 8.36-2.985l-.534-.651a12.217 12.217 0 0 1-7.801 2.794h-.026.001v.842zM.421 13.617c0 7.286 5.905 13.197 13.197 13.197v-.842c-6.826.001-12.355-5.534-12.355-12.355H.421zM13.618.421C6.326.421.421 6.333.421 13.618h.842c0-6.821 5.528-12.355 12.355-12.355V.421zm13.197 13.197c0-7.285-5.912-13.197-13.198-13.197v.842c6.821 0 12.355 5.534 12.355 12.355h.842zm-2.991 8.366a13.076 13.076 0 0 0 2.991-8.351v-.017.001h-.842c0 2.974-1.053 5.701-2.8 7.832l.651.535zM13.618 23.43c-5.416 0-9.818-4.402-9.818-9.812h-.842c0 5.875 4.78 10.654 10.661 10.654v-.842zm9.819-9.812c0 5.41-4.408 9.812-9.819 9.812v.842c5.875 0 10.661-4.779 10.661-10.654h-.842zM13.617 3.8c5.411 0 9.819 4.408 9.819 9.819h.842c0-5.875-4.786-10.661-10.661-10.661V3.8zM3.8 13.619C3.8 8.208 8.203 3.8 13.619 3.8v-.842c-5.882 0-10.661 4.786-10.661 10.661H3.8z"/></symbol></defs></svg>