<svg aria-hidden="true" style="position: absolute; width: 0; height: 0; overflow: hidden;" version="1.1" xmlns="http://www.w3.org/2000/svg" xmlns:xlink="http://www.w3.org/1999/xlink">
<defs>
<symbol id="icon-basket" viewBox="0 0 26 32">
<path fill="#fff" style="fill: var(--color1, #fff)" d="M26.215 30.75l-0.001-0.005c0.006 0.040 0.009 0.082 0.009 0.124 0 0.001 0 0.003 0 0.004 0 0.549-0.458 0.994-1.022 0.994h-24.143c-0.284 0-0.554-0.114-0.747-0.315s-0.293-0.47-0.274-0.745l1.606-23.828c0.035-0.523 0.482-0.929 1.020-0.929h4.475v-0.64c0-2.742 2.293-4.972 5.112-4.972h1.758c2.818 0 5.112 2.23 5.112 4.972v0.64h4.473c0.539 0 0.985 0.406 1.020 0.93l1.603 23.77zM12.25 2.426c-1.692 0-3.068 1.339-3.068 2.984v0.64h7.893v-0.64c0-1.645-1.376-2.984-3.068-2.984h-1.758z"></path>
</symbol>
<symbol id="icon-heart" viewBox="0 0 36 32">
<path fill="#fff" style="fill: var(--color1, #fff)" d="M16.24 31.444c0.359 0.322 0.837 0.519 1.36 0.519s1.001-0.197 1.362-0.521l-0.002 0.002c0.9-0.81 2.205-1.96 3.518-3.101l0.492-0.419h0.001c3.546-3.085 6.607-5.748 8.738-8.372 2.382-2.934 3.491-5.715 3.491-8.754 0-2.952-0.992-5.676-2.792-7.67-1.725-1.923-4.218-3.128-6.992-3.128-0.017 0-0.035 0-0.052 0h0.003c-2.032 0-3.893 0.656-5.53 1.949-0.856 0.687-1.594 1.472-2.213 2.347l-0.024 0.036c-0.642-0.911-1.38-1.696-2.214-2.366l-0.022-0.017c-1.638-1.293-3.499-1.949-5.53-1.949-0.015-0-0.033-0-0.050-0-2.774 0-5.267 1.205-6.984 3.119l-0.008 0.009c-1.8 1.994-2.792 4.718-2.792 7.67 0 3.039 1.11 5.82 3.491 8.754 2.13 2.624 5.193 5.288 8.74 8.373l0.006 0.005c1.21 1.052 2.58 2.245 4.002 3.514z"></path>
</symbol>
<symbol id="icon-left-arrow" viewBox="0 0 44 32">
<path fill="#fff" style="fill: var(--color1, #fff); stroke: var(--color1, #fff)" stroke="#fff" stroke-linejoin="miter" stroke-linecap="butt" stroke-miterlimit="4" stroke-width="1.0323" d="M29.533 1.355c-0.271-0.277-0.649-0.448-1.066-0.448s-0.795 0.171-1.066 0.448l-0 0c-0.268 0.272-0.433 0.646-0.433 1.058s0.165 0.786 0.433 1.058l-0-0 10.816 10.834h-35.69c-0.002 0-0.005-0-0.007-0-0.821 0-1.486 0.665-1.486 1.486 0 0.004 0 0.007 0 0.011v-0.001c0 0.834 0.661 1.517 1.494 1.517h35.69l-10.816 10.816c-0.576 0.599-0.576 1.561 0 2.137 0.597 0.599 1.559 0.599 2.134 0l13.376-13.399c0.276-0.268 0.447-0.643 0.447-1.058s-0.171-0.79-0.447-1.058l-0-0-13.376-13.402z"></path>
</symbol>
<symbol id="icon-menu" viewBox="0 0 32 32">
<path fill="#fff" style="fill: var(--color1, #fff)" d="M12.445 12.444h7.112v7.112h-7.112zM0 0h7.112v7.112h-7.112zM12.445 24.888h7.112v7.112h-7.112zM0 12.444h7.112v7.112h-7.112zM0 24.888h7.112v7.112h-7.112zM24.889 0h7.112v7.112h-7.112zM12.445 0h7.112v7.112h-7.112zM24.889 12.444h7.112v7.112h-7.112zM24.889 24.888h7.112v7.112h-7.112z"></path>
</symbol>
<symbol id="icon-right-arrow" viewBox="0 0 44 32">
<path fill="#fff" style="fill: var(--color1, #fff); stroke: var(--color1, #fff)" opacity="0.6" stroke="#fff" stroke-linejoin="miter" stroke-linecap="butt" stroke-miterlimit="4" stroke-width="1.0323" d="M14.625 1.355c0.274-0.277 0.655-0.448 1.075-0.448s0.801 0.171 1.075 0.448l0 0c0.581 0.578 0.581 1.539 0 2.116l-10.902 10.833h35.976c0.003-0 0.007-0 0.011-0 0.825 0 1.494 0.669 1.494 1.494 0 0.001 0 0.003 0 0.004v-0c0 0.834-0.667 1.517-1.505 1.517h-35.976l10.901 10.816c0.581 0.599 0.581 1.561 0 2.137-0.601 0.599-1.569 0.599-2.15 0l-13.482-13.4c-0.278-0.267-0.451-0.642-0.451-1.058s0.173-0.791 0.451-1.058l0-0 13.483-13.401z"></path>
</symbol>
<symbol id="icon-search" viewBox="0 0 32 32">
<path fill="#fff" style="fill: var(--color1, #fff)" d="M23.498 21.717l7.288 7.288c0.229 0.227 0.371 0.543 0.371 0.891s-0.142 0.664-0.371 0.891l-0 0c-0.229 0.229-0.545 0.371-0.894 0.371s-0.665-0.142-0.894-0.371l-7.288-7.282c-2.176 1.798-4.994 2.888-8.067 2.888-0.009 0-0.018 0-0.027-0h0.001c-7.058 0.001-12.776-5.721-12.776-12.774 0-7.055 5.717-12.777 12.776-12.777 7.053 0 12.776 5.723 12.776 12.776 0 3.075-1.089 5.896-2.896 8.099zM3.379 13.617c0 5.642 4.591 10.233 10.24 10.233 5.642 0 10.239-4.59 10.239-10.233s-4.598-10.239-10.24-10.239c-5.648 0-10.239 4.597-10.239 10.24z"></path>
<path fill="#fff" style="fill: var(--color1, #fff)" d="M30.787 29.005l-0.298 0.298 0.002 0.002 0.296-0.3zM23.498 21.717l-0.325-0.268-0.242 0.295 0.269 0.27 0.298-0.297zM30.787 30.787l-0.296-0.3-0.002 0.003 0.297 0.297zM28.999 30.787v0zM21.71 23.505l0.298-0.298-0.269-0.269-0.295 0.242 0.266 0.326zM31.085 28.707l-7.288-7.288-0.595 0.595 7.288 7.288 0.595-0.595zM31.083 31.086c0.307-0.304 0.497-0.725 0.497-1.191s-0.19-0.887-0.497-1.191l-0-0-0.592 0.6c0.152 0.151 0.246 0.36 0.246 0.591s-0.094 0.44-0.246 0.591l-0 0 0.592 0.6zM28.701 31.085c0.305 0.305 0.726 0.494 1.192 0.494s0.887-0.189 1.192-0.494l0-0-0.595-0.595c-0.152 0.153-0.363 0.248-0.597 0.248s-0.444-0.095-0.597-0.248l-0-0-0.595 0.595zM21.413 23.803l7.288 7.282 0.595-0.595-7.288-7.283-0.595 0.595zM13.618 26.815c3.176 0 6.085-1.118 8.36-2.985l-0.534-0.651c-2.104 1.739-4.829 2.794-7.801 2.794-0.009 0-0.017 0-0.026-0h0.001v0.842zM0.421 13.617c0 7.286 5.905 13.197 13.197 13.197v-0.842c-6.826 0.001-12.355-5.534-12.355-12.355h-0.842zM13.618 0.421c-7.292 0-13.197 5.912-13.197 13.197h0.842c0-6.821 5.528-12.355 12.355-12.355v-0.842zM26.815 13.618c0-7.285-5.912-13.197-13.198-13.197v0.842c6.821 0 12.355 5.534 12.355 12.355h0.842zM23.824 21.984c1.862-2.252 2.991-5.17 2.991-8.351 0-0.006 0-0.011 0-0.017v0.001h-0.842c0 2.974-1.053 5.701-2.8 7.832l0.651 0.535zM13.618 23.43c-5.416 0-9.818-4.402-9.818-9.812h-0.842c0 5.875 4.78 10.654 10.661 10.654v-0.842zM23.437 13.618c0 5.41-4.408 9.812-9.819 9.812v0.842c5.875 0 10.661-4.779 10.661-10.654h-0.842zM13.617 3.8c5.411 0 9.819 4.408 9.819 9.819h0.842c0-5.875-4.786-10.661-10.661-10.661v0.842zM3.8 13.619c0-5.411 4.403-9.819 9.819-9.819v-0.842c-5.882 0-10.661 4.786-10.661 10.661h0.842z"></path>
</symbol>
</defs>
</svg>
